<?xml version="1.0" encoding="UTF-8"?>
<svg width="27px" height="31px" viewBox="0 0 27 31" version="1.1" xmlns="http://www.w3.org/2000/svg" xmlns:xlink="http://www.w3.org/1999/xlink">
    <!-- Generator: Sketch 63.1 (92452) - https://sketch.com -->
    <title>Shape</title>
    <desc>Created with Sketch.</desc>
    <g id="Symbols" stroke="none" stroke-width="1" fill="none" fill-rule="evenodd">
        <g id="Navigation-Bar/Admin" transform="translate(-88.000000, -21.000000)" fill="#FFFFFF">
            <g id="Left-Panel" transform="translate(24.000000, 20.000000)">
                <g id="SBG-Logo" transform="translate(64.000000, 1.000000)">
                    <path d="M24.8687302,1.18723404 C22.9037645,0.791489362 18.4825916,0 13.4298227,0 C8.30687634,0 3.95588085,0.791489362 1.99091514,1.18723404 C1.28914167,1.31914894 0.797900245,1.91276596 0.727722898,2.70425532 C0.447013511,5.73829787 -0.254759956,13.587234 0.0961267774,16.7531915 C0.938254938,24.206383 6.69279737,28.8893617 13.4298227,31 C14.2719508,30.7361702 15.1842563,30.406383 16.0263845,30.0106383 L4.51729962,8.3106383 L3.39446207,7.51914894 C3.25410738,7.38723404 3.11375269,7.1893617 3.11375269,6.99148936 L3.11375269,3.62765957 C3.11375269,3.42978723 3.25410738,3.29787234 3.46463942,3.29787234 C3.53481677,3.29787234 3.60499411,3.29787234 3.67517146,3.36382979 L6.48226533,5.40851064 C6.69279737,5.54042553 6.76297472,5.73829787 6.76297472,5.93617021 L6.76297472,7.25531915 C8.02616696,6.52978723 9.64024593,6.2 11.2543249,6.33191489 C13.7807094,6.46382979 15.5351431,8.11276596 18.552769,8.24468085 C21.0089761,8.37659574 22.6932324,7.51914894 23.9564247,6.85957447 C24.0967794,8.57446809 24.237134,10.487234 24.3073114,12.2021277 L24.3774887,13.9170213 C22.9739418,15.0382979 20.7282667,15.9617021 19.4650745,15.9617021 C17.3597541,15.9617021 15.8860298,14.6425532 13.8508867,14.6425532 C12.8684039,14.6425532 11.9560984,14.906383 11.1841476,15.4340426 L18.3422369,28.9553191 C22.9037645,26.3829787 26.3424544,22.3595745 26.9038732,16.7531915 C27.25476,13.587234 26.5529865,5.73829787 26.2722771,2.70425532 C26.0617451,1.9787234 25.5705036,1.38510638 24.8687302,1.18723404 Z M12.0262757,27.7680851 L11.3946796,27.5042553 C6.69279737,25.3276596 3.25410738,21.6340426 2.69268861,16.4893617 C2.55233391,15.1042553 2.62251126,12.4659574 2.76286595,9.89361702 L12.0262757,27.7680851 Z M18.4124143,6.00212766 C15.3947884,5.87021277 13.710532,4.35319149 11.1841476,4.2212766 C10.2718421,4.15531915 9.35953654,4.28723404 8.51740838,4.55106383 L6.20155594,3.1 L6.27173329,3.1 C8.236699,2.83617021 10.6929061,2.57234043 13.3596453,2.57234043 C17.6404635,2.57234043 21.4300402,3.16595745 23.5353606,3.56170213 L23.6757153,4.74893617 C22.412523,5.34255319 20.7984441,6.13404255 18.4124143,6.00212766 Z M18.973833,25.3276596 L15.0439016,18.006383 C14.7631922,17.412766 14.2719508,17.0170213 14.2719508,17.0170213 C15.4649657,17.412766 16.93869,18.2702128 19.2545424,18.2702128 C21.5002175,18.2702128 23.3950059,17.0170213 24.0967794,16.2914894 C23.7458926,20.1829787 21.7809269,23.1510638 18.973833,25.3276596 Z" id="Shape"></path>
                </g>
            </g>
        </g>
    </g>
</svg>